<svg version="1.1" id="Layer_1" xmlns="http://www.w3.org/2000/svg" xmlns:xlink="http://www.w3.org/1999/xlink" x="0px" y="0px"
	 width="100%" viewBox="0 0 1500 587" enable-background="new 0 0 1500 587" xml:space="preserve">
<path fill="#FFFFFF" opacity="1.000000" stroke="none" 
	d="
M917.000000,588.000000 
	C611.369812,588.000000 306.239655,588.000000 1.054732,588.000000 
	C1.054732,392.393219 1.054732,196.786438 1.054732,1.089825 
	C500.880310,1.089825 1000.760681,1.089825 1500.820557,1.089825 
	C1500.820557,196.666534 1500.820557,392.333252 1500.820557,588.000000 
	C1306.452759,588.000000 1111.976440,588.000000 917.000000,588.000000 
M506.048340,173.049561 
	C528.241272,173.049561 550.434143,173.049561 573.099670,173.049561 
	C572.491455,171.626312 572.361267,171.143661 572.103333,170.743301 
	C547.031738,131.830032 521.922607,92.940804 496.929077,53.977478 
	C495.171783,51.237984 493.017517,50.989445 490.218719,50.991512 
	C424.223846,51.040276 358.228912,50.983837 292.234100,51.052532 
	C268.595459,51.077141 245.457413,54.718502 222.885330,61.716911 
	C101.469193,99.361618 29.648037,223.154388 57.295273,347.051025 
	C85.818703,474.874207 212.630676,558.254333 340.850159,531.720581 
	C430.353943,513.198669 491.191437,459.428406 523.284912,373.865875 
	C537.052979,337.159607 540.033081,298.937744 534.729431,260.176147 
	C531.672791,237.836975 525.814819,216.189514 516.111267,194.994507 
	C512.458313,187.751694 508.805359,180.508881 506.048340,173.049561 
M1141.077148,339.444916 
	C1143.686035,343.304626 1146.239624,347.203094 1148.913696,351.017212 
	C1159.149658,365.617432 1175.874146,365.573853 1185.994385,350.873291 
	C1192.504395,341.416840 1198.860718,331.854645 1205.295044,322.346039 
	C1209.619629,315.955200 1213.959961,309.575165 1218.293335,303.190308 
	C1218.644775,303.286163 1218.996216,303.382019 1219.347656,303.477875 
	C1219.347656,333.295685 1219.347656,363.113495 1219.347656,392.875549 
	C1234.550049,392.875549 1249.113647,392.875549 1263.495361,392.875549 
	C1263.743164,392.385345 1263.878540,392.242645 1263.878540,392.099884 
	C1263.902588,338.625702 1263.993408,285.151337 1263.861938,231.677505 
	C1263.838257,222.047195 1257.005859,213.723816 1248.234741,211.289307 
	C1238.563721,208.605011 1228.749268,212.010345 1223.117554,220.128387 
	C1219.039429,226.006943 1215.086548,231.972458 1211.080933,237.901276 
	C1196.648315,259.263428 1182.216797,280.626526 1167.515137,302.388519 
	C1166.177124,300.477325 1165.036987,298.897736 1163.946899,297.284271 
	C1146.806274,271.914734 1129.637085,246.564377 1112.564697,221.149002 
	C1108.957764,215.779419 1104.461914,211.936172 1097.912354,210.936707 
	C1082.474854,208.580948 1071.039673,218.271194 1071.020630,233.980652 
	C1070.958008,285.790009 1070.995728,337.599518 1070.994995,389.408966 
	C1070.994995,390.532532 1070.995117,391.656067 1070.995117,392.983368 
	C1086.025513,392.983368 1100.596924,392.983368 1115.864380,392.983368 
	C1115.864380,362.977509 1115.864380,333.202515 1115.864380,302.017914 
	C1124.727539,315.155060 1132.713989,326.992554 1141.077148,339.444916 
M911.346741,367.151855 
	C934.573120,389.764709 962.806030,398.662506 994.512878,395.672943 
	C1021.876770,393.092865 1044.177490,380.442749 1060.007812,357.490387 
	C1061.322388,355.584290 1062.165161,352.939789 1062.193115,350.625854 
	C1062.382202,334.963684 1062.301880,319.298157 1062.276733,303.633728 
	C1062.274780,302.378052 1062.033813,301.122742 1061.873047,299.570404 
	C1054.058472,299.570404 1046.578491,299.570374 1039.098511,299.570374 
	C1031.654907,299.570374 1024.211182,299.570404 1016.350342,299.570404 
	C1016.350342,313.028229 1016.233582,325.830933 1016.431641,338.628754 
	C1016.481812,341.872437 1015.395020,343.868408 1012.801880,345.625122 
	C1002.584045,352.547272 991.346985,354.971710 979.133545,354.133087 
	C955.567200,352.514862 936.979919,335.608643 933.193726,312.059601 
	C929.096313,286.574097 941.513794,263.709290 964.209106,255.066513 
	C979.039307,249.418945 994.293518,250.002823 1009.529968,252.612915 
	C1018.787842,254.198837 1027.907471,256.592590 1037.358643,258.683044 
	C1041.038696,246.433411 1044.743652,234.100372 1048.491211,221.625885 
	C1046.675415,220.875687 1045.474731,220.347885 1044.251587,219.879089 
	C1021.125916,211.015793 997.106323,208.228043 972.602417,210.353516 
	C950.031250,212.311356 929.526245,219.826736 912.369995,235.281097 
	C878.566223,265.731537 873.578125,329.693359 911.346741,367.151855 
M614.973328,354.447510 
	C612.827576,363.787354 610.681824,373.127228 608.532043,382.484741 
	C609.815430,383.046509 610.542542,383.439545 611.315552,383.692200 
	C630.359436,389.915527 649.809692,394.421783 669.808899,395.759644 
	C690.528809,397.145691 711.118469,396.257935 730.695007,388.116364 
	C745.535278,381.944580 757.129272,372.263031 761.284180,356.165894 
	C768.070312,329.874084 760.634705,313.840668 739.991089,302.442200 
	C735.193481,299.793213 730.297974,297.289307 725.307373,295.027893 
	C709.715759,287.962891 693.990417,281.189392 678.463135,273.987732 
	C673.535278,271.702148 668.588501,268.982971 664.504333,265.469574 
	C659.127258,260.843994 660.866394,254.203690 667.609070,251.955032 
	C670.575012,250.965927 673.737183,250.331894 676.855103,250.069931 
	C697.404541,248.343491 717.768616,250.163269 738.023987,253.623322 
	C745.919617,254.972046 753.796326,256.431396 762.458435,257.979187 
	C754.748291,243.138397 747.548218,229.097473 740.085327,215.197678 
	C739.343323,213.815659 737.073975,212.689056 735.384583,212.478683 
	C728.284363,211.594482 721.145874,210.916931 714.001709,210.504578 
	C694.519470,209.380035 675.012207,208.725235 655.802185,213.111954 
	C641.315613,216.420059 628.197449,222.175797 620.640503,236.135300 
	C609.457947,256.792358 614.997559,283.854645 633.615845,298.182190 
	C638.985291,302.314240 644.839111,306.056335 650.966003,308.916595 
	C665.261536,315.590332 679.915039,321.492981 694.305542,327.969971 
	C700.499329,330.757690 706.688293,333.754303 712.358704,337.454132 
	C718.769836,341.637238 718.359558,348.478607 711.591980,352.173370 
	C708.038452,354.113373 703.878662,355.335144 699.850647,355.946808 
	C680.952637,358.816620 662.332275,356.094421 643.822571,352.420258 
	C634.922791,350.653625 626.092102,348.539001 616.969421,346.524414 
	C616.271912,349.164551 615.683960,351.389923 614.973328,354.447510 
M1286.136841,350.644989 
	C1280.387207,364.660858 1274.637573,378.676758 1268.671021,393.221558 
	C1282.391968,393.221558 1295.217041,393.020844 1308.029785,393.330383 
	C1312.516846,393.438812 1314.764771,392.372589 1316.229126,387.778076 
	C1319.232910,378.354858 1323.071045,369.197662 1326.548828,359.975891 
	C1347.399170,359.975891 1367.726685,360.028900 1388.053223,359.911011 
	C1390.693604,359.895721 1391.822754,360.831024 1392.667603,363.203278 
	C1395.677368,371.654480 1399.130615,379.954712 1401.917480,388.475189 
	C1403.196289,392.385071 1405.160034,393.412323 1409.090210,393.321869 
	C1420.916626,393.049683 1432.753174,393.233215 1444.585815,393.207764 
	C1445.966431,393.204803 1447.346680,393.006226 1449.072754,392.871307 
	C1448.386719,391.163788 1447.908447,389.942993 1447.407593,388.731537 
	C1424.933594,334.369110 1402.419067,280.023407 1380.018433,225.630768 
	C1376.132812,216.196060 1369.576294,210.756500 1359.254028,210.506378 
	C1349.416016,210.268005 1342.126709,215.501587 1337.951416,225.580353 
	C1320.778687,267.033264 1303.636719,308.498993 1286.136841,350.644989 
M805.997192,367.500000 
	C805.997192,375.950684 805.997192,384.401337 805.997192,392.807007 
	C821.871887,392.807007 837.230774,392.807007 852.846985,392.807007 
	C852.846985,370.747559 852.770264,349.104736 852.940002,327.463837 
	C852.962219,324.622620 853.696716,321.497925 855.029480,318.999634 
	C873.110474,285.106476 891.357239,251.301758 909.554871,217.470840 
	C910.382874,215.931503 911.135254,214.351532 912.181885,212.277115 
	C898.418579,212.277115 885.431946,212.689392 872.491272,212.097305 
	C866.331909,211.815506 863.504089,214.019516 860.836365,219.300034 
	C850.748169,239.268356 840.112244,258.959961 829.424377,279.242706 
	C828.349182,277.312714 827.527954,275.889069 826.753357,274.440521 
	C817.031738,256.259888 807.049377,238.210831 797.755981,219.813721 
	C794.801697,213.965393 791.511047,211.758514 784.870178,212.091904 
	C772.170532,212.729492 759.416138,212.277161 746.085815,212.277161 
	C747.152588,214.412582 747.838318,215.893463 748.615295,217.324768 
	C767.019836,251.226730 785.474060,285.101868 803.764526,319.065216 
	C805.106689,321.557526 805.846863,324.670746 805.895630,327.511993 
	C806.118958,340.504730 805.995850,353.503448 805.997192,367.500000 
M1118.834717,487.016418 
	C1122.104858,487.016418 1125.375000,487.016418 1128.950317,487.016418 
	C1128.950317,471.979279 1128.953979,457.519379 1128.940186,443.059479 
	C1128.939453,442.267731 1128.795166,441.476105 1128.690063,440.402130 
	C1127.172363,440.325958 1125.880981,440.217407 1124.588501,440.203003 
	C1110.604248,440.047455 1110.626221,440.057373 1106.963013,453.654297 
	C1105.398682,459.460968 1103.720703,465.237061 1101.699463,472.433136 
	C1098.359131,460.700836 1095.464233,450.533142 1092.615112,440.526581 
	C1086.215942,440.526581 1080.300049,440.526581 1074.283447,440.526581 
	C1074.283447,456.106598 1074.283447,471.354218 1074.283447,486.646118 
	C1078.219727,486.646118 1081.906128,486.646118 1085.924561,486.646118 
	C1085.924561,475.688660 1085.924561,465.143097 1085.924561,454.597504 
	C1089.308472,462.781677 1091.821777,471.126190 1094.370239,479.459991 
	C1096.802490,487.413116 1096.818848,487.415039 1105.121338,486.986786 
	C1105.587158,486.962738 1106.039307,486.674561 1106.531738,486.497101 
	C1109.803833,475.777466 1113.066040,465.090302 1116.328247,454.403168 
	C1117.253052,458.399902 1117.177368,462.205322 1117.269531,466.006714 
	C1117.437622,472.937408 1117.705444,479.865662 1118.834717,487.016418 
M1161.706787,455.089386 
	C1158.064209,465.551605 1154.421631,476.013855 1150.655884,486.830109 
	C1155.281616,486.830109 1159.374878,486.830109 1162.945435,486.830109 
	C1166.428711,484.013916 1163.390381,477.219666 1169.949951,477.116547 
	C1173.914062,477.054199 1178.482788,476.155487 1181.647461,477.805115 
	C1183.911743,478.985413 1184.296997,483.770477 1185.426636,486.702942 
	C1189.796387,486.702942 1193.839233,486.702942 1198.307861,486.702942 
	C1193.235596,471.670441 1188.355835,457.064484 1183.295044,442.521545 
	C1182.943359,441.510895 1181.303833,440.409729 1180.166748,440.293365 
	C1167.196777,438.966217 1167.191040,439.014954 1163.045532,451.034882 
	C1162.667114,452.132019 1162.305176,453.234833 1161.706787,455.089386 
M808.627380,458.019897 
	C807.715210,457.619934 806.419373,457.470612 805.963440,456.772644 
	C804.642822,454.750732 802.417480,452.172852 802.884277,450.444458 
	C803.377258,448.619171 806.408813,446.680756 808.604187,446.277710 
	C813.412476,445.395081 815.663391,448.734009 816.207275,453.046722 
	C819.952881,453.046722 823.108826,453.062958 826.264221,453.029236 
	C826.737854,453.024170 827.208984,452.785339 827.668701,452.658112 
	C827.290161,445.837036 825.141907,442.604248 819.072571,440.802734 
	C811.535828,438.565674 803.897461,438.465302 796.695251,441.955811 
	C788.188782,446.078308 787.449768,457.659882 795.312622,462.783813 
	C797.630127,464.294037 800.415588,465.121185 803.043091,466.111755 
	C806.298462,467.338928 809.938721,467.902863 812.783936,469.731598 
	C814.609619,470.905029 816.481689,474.036224 816.170410,475.935303 
	C815.857178,477.846252 813.114502,480.235413 811.001953,480.805542 
	C805.371582,482.325073 803.710388,480.762177 800.651367,473.039978 
	C796.840027,473.039978 793.114319,473.039978 789.406006,473.039978 
	C789.548340,480.951935 791.961853,484.834656 798.275024,486.621185 
	C805.625854,488.701324 813.077515,488.713593 820.373596,486.234131 
	C826.478088,484.159607 829.186951,480.456085 829.325439,474.494354 
	C829.468506,468.329895 827.100708,464.529144 821.179871,462.172882 
	C817.334656,460.642609 813.320435,459.536957 808.627380,458.019897 
M917.741455,472.251068 
	C918.603394,477.676147 917.323914,480.076447 913.102539,480.953522 
	C906.986267,482.224304 904.621643,480.425690 902.532166,472.653412 
	C899.821533,472.653412 897.019653,472.634338 894.218262,472.663879 
	C893.253113,472.674072 892.289368,472.805603 891.353760,472.879425 
	C890.874512,480.599365 893.689453,485.643951 900.665771,486.642731 
	C907.279480,487.589539 914.267517,487.607239 920.859802,486.567719 
	C928.209778,485.408752 931.431213,480.135712 931.082703,472.869598 
	C930.804688,467.071350 927.692383,463.636719 920.535400,461.198822 
	C916.143677,459.702911 911.582947,458.541443 907.459839,456.499451 
	C905.838623,455.696503 904.193237,452.780060 904.404114,451.051117 
	C904.612915,449.338898 906.877380,447.179626 908.714172,446.502655 
	C913.111816,444.881989 915.674866,446.834595 918.299927,452.685791 
	C922.111694,452.685791 925.819336,452.685791 929.556885,452.685791 
	C929.362305,445.947662 926.157104,441.370270 920.047729,440.669464 
	C913.591675,439.928894 906.761475,439.926636 900.437195,441.244812 
	C893.603821,442.669098 890.775085,448.647308 892.038635,455.555054 
	C893.035706,461.006317 897.146667,463.344971 901.810608,465.184204 
	C906.998352,467.229980 912.116638,469.451965 917.741455,472.251068 
M1242.806519,459.819550 
	C1239.879150,458.668579 1236.692993,457.909698 1234.124268,456.215179 
	C1232.656006,455.246643 1231.297241,452.628754 1231.528687,450.984436 
	C1231.760254,449.341003 1233.765991,447.323761 1235.466675,446.631439 
	C1240.017212,444.779022 1242.799683,446.709229 1245.603027,452.864624 
	C1249.251221,452.864624 1252.875854,452.864624 1256.688232,452.864624 
	C1256.656494,447.558044 1254.804443,443.435608 1249.954834,441.533142 
	C1241.901489,438.373810 1233.646606,438.318329 1225.723999,441.914215 
	C1219.011719,444.960846 1216.345581,453.514099 1220.789062,459.111237 
	C1223.186035,462.130554 1227.273071,464.014984 1230.901978,465.789185 
	C1234.293701,467.447388 1238.430542,467.731476 1241.575684,469.687469 
	C1243.472534,470.867218 1245.225952,474.227264 1244.955322,476.340057 
	C1244.729004,478.106293 1241.669067,480.376282 1239.512939,480.860352 
	C1233.814087,482.139862 1232.302734,480.627808 1229.611816,473.007263 
	C1225.821533,473.007263 1222.088867,473.007263 1218.378052,473.007263 
	C1218.320923,480.707886 1220.493042,484.387848 1226.671509,486.384827 
	C1234.501831,488.915771 1242.440063,488.723877 1250.164185,485.948975 
	C1255.324219,484.095215 1258.094116,480.283203 1258.241699,474.575409 
	C1258.386597,468.970886 1256.284302,464.883636 1251.052856,462.675476 
	C1248.616211,461.647003 1246.070557,460.876587 1242.806519,459.819550 
M1027.744751,473.491974 
	C1027.744751,471.395264 1027.744751,469.298553 1027.744751,466.775696 
	C1034.793579,466.775696 1041.218750,466.775696 1047.754150,466.775696 
	C1047.754150,463.956909 1047.754150,461.587982 1047.754150,458.850464 
	C1040.987061,458.850464 1034.551392,458.850464 1028.086670,458.850464 
	C1028.086670,455.088806 1028.086670,451.711731 1028.086670,447.909729 
	C1035.340454,447.909729 1042.257568,447.909729 1049.110962,447.909729 
	C1049.110962,445.095947 1049.110962,442.741425 1049.110962,440.535583 
	C1037.541870,440.535583 1026.454102,440.535583 1015.299927,440.535583 
	C1015.299927,456.127625 1015.299927,471.377411 1015.299927,486.838440 
	C1026.976074,486.838440 1038.398926,486.838440 1049.963745,486.838440 
	C1049.963745,484.281433 1049.963745,481.863312 1049.963745,479.117249 
	C1042.541626,479.117249 1035.424683,479.117249 1027.984497,479.117249 
	C1027.893799,477.375946 1027.818481,475.926697 1027.744751,473.491974 
M988.310486,448.054626 
	C993.934875,446.810516 989.794495,443.037720 990.768921,440.575317 
	C977.403625,440.575317 964.534241,440.575317 951.639099,440.575317 
	C951.639099,443.226227 951.639099,445.470581 951.639099,448.157043 
	C956.196289,448.157043 960.447571,448.157043 965.152954,448.157043 
	C965.152954,461.316193 965.152954,474.032410 965.152954,486.699463 
	C969.514954,486.699463 973.394165,486.699463 977.632080,486.699463 
	C977.632080,473.754578 977.632080,461.165680 977.632080,448.055298 
	C981.117737,448.055298 984.235535,448.055298 988.310486,448.054626 
M853.995117,482.371460 
	C854.062805,483.816742 854.130493,485.262024 854.197327,486.689514 
	C858.402893,486.689514 862.271484,486.689514 866.136169,486.689514 
	C866.136169,471.095001 866.136169,455.849609 866.136169,440.596710 
	C861.947144,440.596710 858.070129,440.596710 853.995972,440.596710 
	C853.995972,454.449280 853.995972,467.921570 853.995117,482.371460 
z"/>
<path fill="#FA4501" opacity="1.000000" stroke="none" 
	d="
M516.156433,195.694885 
	C525.814819,216.189514 531.672791,237.836975 534.729431,260.176147 
	C540.033081,298.937744 537.052979,337.159607 523.284912,373.865875 
	C491.191437,459.428406 430.353943,513.198669 340.850159,531.720581 
	C212.630676,558.254333 85.818703,474.874207 57.295273,347.051025 
	C29.648037,223.154388 101.469193,99.361618 222.885330,61.716911 
	C245.457413,54.718502 268.595459,51.077141 292.234100,51.052532 
	C358.228912,50.983837 424.223846,51.040276 490.218719,50.991512 
	C493.017517,50.989445 495.171783,51.237984 496.929077,53.977478 
	C521.922607,92.940804 547.031738,131.830032 572.103333,170.743301 
	C572.361267,171.143661 572.491455,171.626312 573.099670,173.049561 
	C550.434143,173.049561 528.241272,173.049561 505.136902,173.032684 
	C442.797943,172.987152 381.370483,172.950150 319.942993,172.948318 
	C315.795288,172.948196 311.647614,173.213058 307.063232,173.357178 
	C228.745163,167.295807 167.654251,228.164169 173.926804,305.576050 
	C179.549088,374.962799 246.847992,426.164429 316.151520,412.509491 
	C364.657135,402.952332 397.373932,373.525787 410.491425,325.897308 
	C423.778534,277.652893 410.030518,235.885712 372.979889,202.051697 
	C362.913483,192.859238 350.924347,186.701965 339.073486,180.610291 
	C341.373474,180.260406 343.371796,179.950317 345.323608,180.134079 
	C361.657227,181.671906 377.974152,183.390030 394.312225,184.876801 
	C410.990417,186.394516 427.692688,187.646729 444.373962,189.132523 
	C468.306427,191.264206 492.229401,193.502258 516.156433,195.694885 
z"/>
<path fill="#464449" opacity="1.000000" stroke="none" 
	d="
M1140.888672,339.137482 
	C1132.713989,326.992554 1124.727539,315.155060 1115.864380,302.017914 
	C1115.864380,333.202515 1115.864380,362.977509 1115.864380,392.983368 
	C1100.596924,392.983368 1086.025513,392.983368 1070.995117,392.983368 
	C1070.995117,391.656067 1070.994995,390.532532 1070.994995,389.408966 
	C1070.995728,337.599518 1070.958008,285.790009 1071.020630,233.980652 
	C1071.039673,218.271194 1082.474854,208.580948 1097.912354,210.936707 
	C1104.461914,211.936172 1108.957764,215.779419 1112.564697,221.149002 
	C1129.637085,246.564377 1146.806274,271.914734 1163.946899,297.284271 
	C1165.036987,298.897736 1166.177124,300.477325 1167.515137,302.388519 
	C1182.216797,280.626526 1196.648315,259.263428 1211.080933,237.901276 
	C1215.086548,231.972458 1219.039429,226.006943 1223.117554,220.128387 
	C1228.749268,212.010345 1238.563721,208.605011 1248.234741,211.289307 
	C1257.005859,213.723816 1263.838257,222.047195 1263.861938,231.677505 
	C1263.993408,285.151337 1263.902588,338.625702 1263.878540,392.099884 
	C1263.878540,392.242645 1263.743164,392.385345 1263.495361,392.875549 
	C1249.113647,392.875549 1234.550049,392.875549 1219.347656,392.875549 
	C1219.347656,363.113495 1219.347656,333.295685 1219.347656,303.477875 
	C1218.996216,303.382019 1218.644775,303.286163 1218.293335,303.190308 
	C1213.959961,309.575165 1209.619629,315.955200 1205.295044,322.346039 
	C1198.860718,331.854645 1192.504395,341.416840 1185.994385,350.873291 
	C1175.874146,365.573853 1159.149658,365.617432 1148.913696,351.017212 
	C1146.239624,347.203094 1143.686035,343.304626 1140.888672,339.137482 
z"/>
<path fill="#464449" opacity="1.000000" stroke="none" 
	d="
M911.096497,366.901855 
	C873.578125,329.693359 878.566223,265.731537 912.369995,235.281097 
	C929.526245,219.826736 950.031250,212.311356 972.602417,210.353516 
	C997.106323,208.228043 1021.125916,211.015793 1044.251587,219.879089 
	C1045.474731,220.347885 1046.675415,220.875687 1048.491211,221.625885 
	C1044.743652,234.100372 1041.038696,246.433411 1037.358643,258.683044 
	C1027.907471,256.592590 1018.787842,254.198837 1009.529968,252.612915 
	C994.293518,250.002823 979.039307,249.418945 964.209106,255.066513 
	C941.513794,263.709290 929.096313,286.574097 933.193726,312.059601 
	C936.979919,335.608643 955.567200,352.514862 979.133545,354.133087 
	C991.346985,354.971710 1002.584045,352.547272 1012.801880,345.625122 
	C1015.395020,343.868408 1016.481812,341.872437 1016.431641,338.628754 
	C1016.233582,325.830933 1016.350342,313.028229 1016.350342,299.570404 
	C1024.211182,299.570404 1031.654907,299.570374 1039.098511,299.570374 
	C1046.578491,299.570374 1054.058472,299.570404 1061.873047,299.570404 
	C1062.033813,301.122742 1062.274780,302.378052 1062.276733,303.633728 
	C1062.301880,319.298157 1062.382202,334.963684 1062.193115,350.625854 
	C1062.165161,352.939789 1061.322388,355.584290 1060.007812,357.490387 
	C1044.177490,380.442749 1021.876770,393.092865 994.512878,395.672943 
	C962.806030,398.662506 934.573120,389.764709 911.096497,366.901855 
z"/>
<path fill="#464449" opacity="1.000000" stroke="none" 
	d="
M615.034668,354.031433 
	C615.683960,351.389923 616.271912,349.164551 616.969421,346.524414 
	C626.092102,348.539001 634.922791,350.653625 643.822571,352.420258 
	C662.332275,356.094421 680.952637,358.816620 699.850647,355.946808 
	C703.878662,355.335144 708.038452,354.113373 711.591980,352.173370 
	C718.359558,348.478607 718.769836,341.637238 712.358704,337.454132 
	C706.688293,333.754303 700.499329,330.757690 694.305542,327.969971 
	C679.915039,321.492981 665.261536,315.590332 650.966003,308.916595 
	C644.839111,306.056335 638.985291,302.314240 633.615845,298.182190 
	C614.997559,283.854645 609.457947,256.792358 620.640503,236.135300 
	C628.197449,222.175797 641.315613,216.420059 655.802185,213.111954 
	C675.012207,208.725235 694.519470,209.380035 714.001709,210.504578 
	C721.145874,210.916931 728.284363,211.594482 735.384583,212.478683 
	C737.073975,212.689056 739.343323,213.815659 740.085327,215.197678 
	C747.548218,229.097473 754.748291,243.138397 762.458435,257.979187 
	C753.796326,256.431396 745.919617,254.972046 738.023987,253.623322 
	C717.768616,250.163269 697.404541,248.343491 676.855103,250.069931 
	C673.737183,250.331894 670.575012,250.965927 667.609070,251.955032 
	C660.866394,254.203690 659.127258,260.843994 664.504333,265.469574 
	C668.588501,268.982971 673.535278,271.702148 678.463135,273.987732 
	C693.990417,281.189392 709.715759,287.962891 725.307373,295.027893 
	C730.297974,297.289307 735.193481,299.793213 739.991089,302.442200 
	C760.634705,313.840668 768.070312,329.874084 761.284180,356.165894 
	C757.129272,372.263031 745.535278,381.944580 730.695007,388.116364 
	C711.118469,396.257935 690.528809,397.145691 669.808899,395.759644 
	C649.809692,394.421783 630.359436,389.915527 611.315552,383.692200 
	C610.542542,383.439545 609.815430,383.046509 608.532043,382.484741 
	C610.681824,373.127228 612.827576,363.787354 615.034668,354.031433 
z"/>
<path fill="#464449" opacity="1.000000" stroke="none" 
	d="
M1286.310059,350.302490 
	C1303.636719,308.498993 1320.778687,267.033264 1337.951416,225.580353 
	C1342.126709,215.501587 1349.416016,210.268005 1359.254028,210.506378 
	C1369.576294,210.756500 1376.132812,216.196060 1380.018433,225.630768 
	C1402.419067,280.023407 1424.933594,334.369110 1447.407593,388.731537 
	C1447.908447,389.942993 1448.386719,391.163788 1449.072754,392.871307 
	C1447.346680,393.006226 1445.966431,393.204803 1444.585815,393.207764 
	C1432.753174,393.233215 1420.916626,393.049683 1409.090210,393.321869 
	C1405.160034,393.412323 1403.196289,392.385071 1401.917480,388.475189 
	C1399.130615,379.954712 1395.677368,371.654480 1392.667603,363.203278 
	C1391.822754,360.831024 1390.693604,359.895721 1388.053223,359.911011 
	C1367.726685,360.028900 1347.399170,359.975891 1326.548828,359.975891 
	C1323.071045,369.197662 1319.232910,378.354858 1316.229126,387.778076 
	C1314.764771,392.372589 1312.516846,393.438812 1308.029785,393.330383 
	C1295.217041,393.020844 1282.391968,393.221558 1268.671021,393.221558 
	C1274.637573,378.676758 1280.387207,364.660858 1286.310059,350.302490 
M1365.346436,289.091980 
	C1363.388428,283.821228 1361.430298,278.550476 1359.018188,272.057190 
	C1352.162109,290.710754 1345.839478,307.913239 1339.356201,325.552734 
	C1352.868042,325.552734 1365.481689,325.552734 1378.758911,325.552734 
	C1374.321289,313.400665 1370.010620,301.596313 1365.346436,289.091980 
z"/>
<path fill="#464449" opacity="1.000000" stroke="none" 
	d="
M805.997192,367.000000 
	C805.995850,353.503448 806.118958,340.504730 805.895630,327.511993 
	C805.846863,324.670746 805.106689,321.557526 803.764526,319.065216 
	C785.474060,285.101868 767.019836,251.226730 748.615295,217.324768 
	C747.838318,215.893463 747.152588,214.412582 746.085815,212.277161 
	C759.416138,212.277161 772.170532,212.729492 784.870178,212.091904 
	C791.511047,211.758514 794.801697,213.965393 797.755981,219.813721 
	C807.049377,238.210831 817.031738,256.259888 826.753357,274.440521 
	C827.527954,275.889069 828.349182,277.312714 829.424377,279.242706 
	C840.112244,258.959961 850.748169,239.268356 860.836365,219.300034 
	C863.504089,214.019516 866.331909,211.815506 872.491272,212.097305 
	C885.431946,212.689392 898.418579,212.277115 912.181885,212.277115 
	C911.135254,214.351532 910.382874,215.931503 909.554871,217.470840 
	C891.357239,251.301758 873.110474,285.106476 855.029480,318.999634 
	C853.696716,321.497925 852.962219,324.622620 852.940002,327.463837 
	C852.770264,349.104736 852.846985,370.747559 852.846985,392.807007 
	C837.230774,392.807007 821.871887,392.807007 805.997192,392.807007 
	C805.997192,384.401337 805.997192,375.950684 805.997192,367.000000 
z"/>
<path fill="#6F3A26" opacity="1.000000" stroke="none" 
	d="
M516.133850,195.344696 
	C492.229401,193.502258 468.306427,191.264206 444.373962,189.132523 
	C427.692688,187.646729 410.990417,186.394516 394.312225,184.876801 
	C377.974152,183.390030 361.657227,181.671906 345.323608,180.134079 
	C343.371796,179.950317 341.373474,180.260406 338.722778,180.609741 
	C327.865845,178.370148 317.682861,175.862427 307.499908,173.354691 
	C311.647614,173.213058 315.795288,172.948196 319.942993,172.948318 
	C381.370483,172.950150 442.797943,172.987152 504.688904,173.140945 
	C508.805359,180.508881 512.458313,187.751694 516.133850,195.344696 
z"/>
<path fill="#4B494E" opacity="1.000000" stroke="none" 
	d="
M1118.383301,486.905701 
	C1117.705444,479.865662 1117.437622,472.937408 1117.269531,466.006714 
	C1117.177368,462.205322 1117.253052,458.399902 1116.328247,454.403168 
	C1113.066040,465.090302 1109.803833,475.777466 1106.531738,486.497101 
	C1106.039307,486.674561 1105.587158,486.962738 1105.121338,486.986786 
	C1096.818848,487.415039 1096.802490,487.413116 1094.370239,479.459991 
	C1091.821777,471.126190 1089.308472,462.781677 1085.924561,454.597504 
	C1085.924561,465.143097 1085.924561,475.688660 1085.924561,486.646118 
	C1081.906128,486.646118 1078.219727,486.646118 1074.283447,486.646118 
	C1074.283447,471.354218 1074.283447,456.106598 1074.283447,440.526581 
	C1080.300049,440.526581 1086.215942,440.526581 1092.615112,440.526581 
	C1095.464233,450.533142 1098.359131,460.700836 1101.699463,472.433136 
	C1103.720703,465.237061 1105.398682,459.460968 1106.963013,453.654297 
	C1110.626221,440.057373 1110.604248,440.047455 1124.588501,440.203003 
	C1125.880981,440.217407 1127.172363,440.325958 1128.690063,440.402130 
	C1128.795166,441.476105 1128.939453,442.267731 1128.940186,443.059479 
	C1128.953979,457.519379 1128.950317,471.979279 1128.950317,487.016418 
	C1125.375000,487.016418 1122.104858,487.016418 1118.383301,486.905701 
z"/>
<path fill="#49474B" opacity="1.000000" stroke="none" 
	d="
M1161.821167,454.712189 
	C1162.305176,453.234833 1162.667114,452.132019 1163.045532,451.034882 
	C1167.191040,439.014954 1167.196777,438.966217 1180.166748,440.293365 
	C1181.303833,440.409729 1182.943359,441.510895 1183.295044,442.521545 
	C1188.355835,457.064484 1193.235596,471.670441 1198.307861,486.702942 
	C1193.839233,486.702942 1189.796387,486.702942 1185.426636,486.702942 
	C1184.296997,483.770477 1183.911743,478.985413 1181.647461,477.805115 
	C1178.482788,476.155487 1173.914062,477.054199 1169.949951,477.116547 
	C1163.390381,477.219666 1166.428711,484.013916 1162.945435,486.830109 
	C1159.374878,486.830109 1155.281616,486.830109 1150.655884,486.830109 
	C1154.421631,476.013855 1158.064209,465.551605 1161.821167,454.712189 
M1175.658081,452.098907 
	C1175.314941,451.175262 1174.971924,450.251648 1174.322510,448.503571 
	C1172.250366,455.823700 1170.386597,462.407806 1168.414429,469.375122 
	C1172.714355,469.375122 1176.249878,469.375122 1180.352417,469.375122 
	C1178.785522,463.583801 1177.331787,458.210114 1175.658081,452.098907 
z"/>
<path fill="#49474C" opacity="1.000000" stroke="none" 
	d="
M809.004639,458.130493 
	C813.320435,459.536957 817.334656,460.642609 821.179871,462.172882 
	C827.100708,464.529144 829.468506,468.329895 829.325439,474.494354 
	C829.186951,480.456085 826.478088,484.159607 820.373596,486.234131 
	C813.077515,488.713593 805.625854,488.701324 798.275024,486.621185 
	C791.961853,484.834656 789.548340,480.951935 789.406006,473.039978 
	C793.114319,473.039978 796.840027,473.039978 800.651367,473.039978 
	C803.710388,480.762177 805.371582,482.325073 811.001953,480.805542 
	C813.114502,480.235413 815.857178,477.846252 816.170410,475.935303 
	C816.481689,474.036224 814.609619,470.905029 812.783936,469.731598 
	C809.938721,467.902863 806.298462,467.338928 803.043091,466.111755 
	C800.415588,465.121185 797.630127,464.294037 795.312622,462.783813 
	C787.449768,457.659882 788.188782,446.078308 796.695251,441.955811 
	C803.897461,438.465302 811.535828,438.565674 819.072571,440.802734 
	C825.141907,442.604248 827.290161,445.837036 827.668701,452.658112 
	C827.208984,452.785339 826.737854,453.024170 826.264221,453.029236 
	C823.108826,453.062958 819.952881,453.046722 816.207275,453.046722 
	C815.663391,448.734009 813.412476,445.395081 808.604187,446.277710 
	C806.408813,446.680756 803.377258,448.619171 802.884277,450.444458 
	C802.417480,452.172852 804.642822,454.750732 805.963440,456.772644 
	C806.419373,457.470612 807.715210,457.619934 809.004639,458.130493 
z"/>
<path fill="#4A484C" opacity="1.000000" stroke="none" 
	d="
M917.503296,471.924164 
	C912.116638,469.451965 906.998352,467.229980 901.810608,465.184204 
	C897.146667,463.344971 893.035706,461.006317 892.038635,455.555054 
	C890.775085,448.647308 893.603821,442.669098 900.437195,441.244812 
	C906.761475,439.926636 913.591675,439.928894 920.047729,440.669464 
	C926.157104,441.370270 929.362305,445.947662 929.556885,452.685791 
	C925.819336,452.685791 922.111694,452.685791 918.299927,452.685791 
	C915.674866,446.834595 913.111816,444.881989 908.714172,446.502655 
	C906.877380,447.179626 904.612915,449.338898 904.404114,451.051117 
	C904.193237,452.780060 905.838623,455.696503 907.459839,456.499451 
	C911.582947,458.541443 916.143677,459.702911 920.535400,461.198822 
	C927.692383,463.636719 930.804688,467.071350 931.082703,472.869598 
	C931.431213,480.135712 928.209778,485.408752 920.859802,486.567719 
	C914.267517,487.607239 907.279480,487.589539 900.665771,486.642731 
	C893.689453,485.643951 890.874512,480.599365 891.353760,472.879425 
	C892.289368,472.805603 893.253113,472.674072 894.218262,472.663879 
	C897.019653,472.634338 899.821533,472.653412 902.532166,472.653412 
	C904.621643,480.425690 906.986267,482.224304 913.102539,480.953522 
	C917.323914,480.076447 918.603394,477.676147 917.503296,471.924164 
z"/>
<path fill="#49474C" opacity="1.000000" stroke="none" 
	d="
M1243.190430,459.904388 
	C1246.070557,460.876587 1248.616211,461.647003 1251.052856,462.675476 
	C1256.284302,464.883636 1258.386597,468.970886 1258.241699,474.575409 
	C1258.094116,480.283203 1255.324219,484.095215 1250.164185,485.948975 
	C1242.440063,488.723877 1234.501831,488.915771 1226.671509,486.384827 
	C1220.493042,484.387848 1218.320923,480.707886 1218.378052,473.007263 
	C1222.088867,473.007263 1225.821533,473.007263 1229.611816,473.007263 
	C1232.302734,480.627808 1233.814087,482.139862 1239.512939,480.860352 
	C1241.669067,480.376282 1244.729004,478.106293 1244.955322,476.340057 
	C1245.225952,474.227264 1243.472534,470.867218 1241.575684,469.687469 
	C1238.430542,467.731476 1234.293701,467.447388 1230.901978,465.789185 
	C1227.273071,464.014984 1223.186035,462.130554 1220.789062,459.111237 
	C1216.345581,453.514099 1219.011719,444.960846 1225.723999,441.914215 
	C1233.646606,438.318329 1241.901489,438.373810 1249.954834,441.533142 
	C1254.804443,443.435608 1256.656494,447.558044 1256.688232,452.864624 
	C1252.875854,452.864624 1249.251221,452.864624 1245.603027,452.864624 
	C1242.799683,446.709229 1240.017212,444.779022 1235.466675,446.631439 
	C1233.765991,447.323761 1231.760254,449.341003 1231.528687,450.984436 
	C1231.297241,452.628754 1232.656006,455.246643 1234.124268,456.215179 
	C1236.692993,457.909698 1239.879150,458.668579 1243.190430,459.904388 
z"/>
<path fill="#4B494E" opacity="1.000000" stroke="none" 
	d="
M1027.743896,473.984680 
	C1027.818481,475.926697 1027.893799,477.375946 1027.984497,479.117249 
	C1035.424683,479.117249 1042.541626,479.117249 1049.963745,479.117249 
	C1049.963745,481.863312 1049.963745,484.281433 1049.963745,486.838440 
	C1038.398926,486.838440 1026.976074,486.838440 1015.299927,486.838440 
	C1015.299927,471.377411 1015.299927,456.127625 1015.299927,440.535583 
	C1026.454102,440.535583 1037.541870,440.535583 1049.110962,440.535583 
	C1049.110962,442.741425 1049.110962,445.095947 1049.110962,447.909729 
	C1042.257568,447.909729 1035.340454,447.909729 1028.086670,447.909729 
	C1028.086670,451.711731 1028.086670,455.088806 1028.086670,458.850464 
	C1034.551392,458.850464 1040.987061,458.850464 1047.754150,458.850464 
	C1047.754150,461.587982 1047.754150,463.956909 1047.754150,466.775696 
	C1041.218750,466.775696 1034.793579,466.775696 1027.744751,466.775696 
	C1027.744751,469.298553 1027.744751,471.395264 1027.743896,473.984680 
z"/>
<path fill="#4E4C50" opacity="1.000000" stroke="none" 
	d="
M987.831909,448.054962 
	C984.235535,448.055298 981.117737,448.055298 977.632080,448.055298 
	C977.632080,461.165680 977.632080,473.754578 977.632080,486.699463 
	C973.394165,486.699463 969.514954,486.699463 965.152954,486.699463 
	C965.152954,474.032410 965.152954,461.316193 965.152954,448.157043 
	C960.447571,448.157043 956.196289,448.157043 951.639099,448.157043 
	C951.639099,445.470581 951.639099,443.226227 951.639099,440.575317 
	C964.534241,440.575317 977.403625,440.575317 990.768921,440.575317 
	C989.794495,443.037720 993.934875,446.810516 987.831909,448.054962 
z"/>
<path fill="#464449" opacity="1.000000" stroke="none" 
	d="
M853.995544,481.882660 
	C853.995972,467.921570 853.995972,454.449280 853.995972,440.596710 
	C858.070129,440.596710 861.947144,440.596710 866.136169,440.596710 
	C866.136169,455.849609 866.136169,471.095001 866.136169,486.689514 
	C862.271484,486.689514 858.402893,486.689514 854.197327,486.689514 
	C854.130493,485.262024 854.062805,483.816742 853.995544,481.882660 
z"/>
<path fill="#FFFEFE" opacity="1.000000" stroke="none" 
	d="
M307.063232,173.357178 
	C317.682861,175.862427 327.865845,178.370148 338.399536,180.878448 
	C350.924347,186.701965 362.913483,192.859238 372.979889,202.051697 
	C410.030518,235.885712 423.778534,277.652893 410.491425,325.897308 
	C397.373932,373.525787 364.657135,402.952332 316.151520,412.509491 
	C246.847992,426.164429 179.549088,374.962799 173.926804,305.576050 
	C167.654251,228.164169 228.745163,167.295807 307.063232,173.357178 
z"/>
<path fill="#FAFAFA" opacity="1.000000" stroke="none" 
	d="
M1365.523193,289.441956 
	C1370.010620,301.596313 1374.321289,313.400665 1378.758911,325.552734 
	C1365.481689,325.552734 1352.868042,325.552734 1339.356201,325.552734 
	C1345.839478,307.913239 1352.162109,290.710754 1359.018188,272.057190 
	C1361.430298,278.550476 1363.388428,283.821228 1365.523193,289.441956 
z"/>
<path fill="#F1F0F1" opacity="1.000000" stroke="none" 
	d="
M1175.768066,452.467651 
	C1177.331787,458.210114 1178.785522,463.583801 1180.352417,469.375122 
	C1176.249878,469.375122 1172.714355,469.375122 1168.414429,469.375122 
	C1170.386597,462.407806 1172.250366,455.823700 1174.322510,448.503571 
	C1174.971924,450.251648 1175.314941,451.175262 1175.768066,452.467651 
z"/>
</svg>